<svg width="58" height="102" viewBox="0 0 58 102" fill="none" xmlns="http://www.w3.org/2000/svg">
<path fill-rule="evenodd" clip-rule="evenodd" d="M26.3697 1.06215C26.7055 0.725462 27.1045 0.458339 27.5437 0.276078C27.9829 0.0938172 28.4538 0 28.9293 0C29.4049 0 29.8758 0.0938172 30.315 0.276078C30.7542 0.458339 31.1532 0.725462 31.489 1.06215L56.7965 26.3697C57.3035 26.8753 57.6488 27.5201 57.7889 28.2222C57.9289 28.9244 57.8573 29.6523 57.5831 30.3138C57.309 30.9752 56.8446 31.5403 56.2488 31.9375C55.6531 32.3346 54.9529 32.546 54.2369 32.5447H36.1601V94.0058C36.1601 95.9235 35.3983 97.7627 34.0422 99.1187C32.6862 100.475 30.8471 101.237 28.9293 101.237C27.0116 101.237 25.1725 100.475 23.8165 99.1187C22.4604 97.7627 21.6986 95.9235 21.6986 94.0058V32.5447H3.62183C2.90584 32.546 2.20559 32.3346 1.60986 31.9375C1.01413 31.5403 0.549737 30.9752 0.275566 30.3138C0.00139523 29.6523 -0.0702112 28.9244 0.0698246 28.2222C0.20986 27.5201 0.555231 26.8753 1.06215 26.3697L26.3697 1.06215Z" fill="#1B1B2E"/>
</svg>
