<svg width="179" height="118" viewBox="0 0 179 118" fill="none" xmlns="http://www.w3.org/2000/svg">
<path d="M0 83.0133C0 75.0344 2.49842 67.8615 7.49527 61.6558C12.4921 55.45 18.8591 51.4203 26.6767 49.6472C28.7722 40.2177 33.5272 32.4 41.0225 26.4361C48.5178 20.3915 57.1414 17.4095 66.9739 17.4095C76.484 17.4095 85.027 20.3109 92.4417 26.1943C99.937 32.0777 104.773 39.5729 106.949 48.7607H109.125C118.635 48.7607 126.694 52.065 133.384 58.7544C140.073 65.4437 143.458 73.5031 143.458 82.9327C143.458 92.4428 140.073 100.502 133.384 107.192C126.694 113.881 118.635 117.266 109.125 117.266H34.4138C29.7393 117.266 25.3066 116.379 21.1157 114.526C16.9248 112.672 13.1369 110.415 10.0743 107.353C7.0117 104.29 4.59388 100.583 2.74021 96.3919C0.886537 92.201 0 87.6071 0 83.0133ZM11.6862 83.0133C11.6862 89.1384 13.9428 94.4577 18.2949 98.8098C22.647 103.162 28.0468 105.418 34.3332 105.418H109.125C115.33 105.418 120.73 103.242 125.163 98.8098C129.596 94.3771 131.852 89.1384 131.852 83.0133C131.852 76.8881 129.676 71.5689 125.163 67.2168C120.73 62.8647 115.411 60.608 109.125 60.608H97.9221C97.1162 60.608 96.7132 60.2051 96.7132 59.3991L96.149 55.45C95.3431 47.8741 92.1193 41.5072 86.5583 36.5103C80.9973 31.5135 74.3886 29.0151 66.8127 29.0151C59.2368 29.0151 52.6281 31.5135 46.9865 36.5909C41.3449 41.5878 38.2017 47.9547 37.4764 55.45L36.9122 58.835C36.9122 59.6409 36.5092 60.0439 35.6227 60.0439L31.9959 60.608C26.1932 61.0916 21.3575 63.5094 17.4084 67.7809C13.701 72.0524 11.6862 77.1299 11.6862 83.0133ZM83.0121 12.735C82.2062 13.4604 82.3674 14.0245 83.5763 14.4275C87.0419 15.9588 89.9433 17.4095 92.2805 18.8602C93.167 19.102 93.8118 19.0214 94.0536 18.6184C98.9698 14.0245 104.611 11.6873 111.14 11.6873C117.668 11.6873 123.229 13.8633 128.064 18.2154C132.819 22.5675 135.479 27.9673 136.043 34.3343L136.769 39.4923H148.213C153.452 39.4923 157.965 41.346 161.753 45.1339C165.541 48.9219 167.394 53.3546 167.394 58.5126C167.394 63.3483 165.702 67.5392 162.398 71.1659C159.093 74.7926 154.983 76.8075 150.067 77.3717C149.261 77.3717 148.858 77.7746 148.858 78.6612V87.7683C148.858 88.6549 149.261 89.0578 150.067 89.0578C158.207 88.5743 165.057 85.3505 170.618 79.4671C176.179 73.5837 179 66.572 179 58.5126C179 49.9696 176.018 42.7161 169.973 36.7521C163.929 30.7076 156.675 27.7256 148.213 27.7256H147.004C144.909 19.6661 140.476 13.0574 133.706 7.81877C127.017 2.58014 119.441 0.00111943 111.14 0.00111943C99.8564 -0.0794749 90.4268 4.19202 83.0121 12.735Z" fill="#D6D6DD"/>
</svg>
